<?xml version="1.0" encoding="utf-8"?>
<!-- Generator: Adobe Illustrator 24.3.0, SVG Export Plug-In . SVG Version: 6.00 Build 0)  -->
<svg version="1.1" id="Layer_1" xmlns="http://www.w3.org/2000/svg" xmlns:xlink="http://www.w3.org/1999/xlink" x="0px" y="0px"
	 viewBox="0 0 501.9 501.9" style="enable-background:new 0 0 501.9 501.9;" xml:space="preserve">
<style type="text/css">
	.st0{fill:#191919;}
	.st1{fill:#F2F2F2;}
	.st2{fill:#474747;}
	.st3{fill:#FFFFFF;}
</style>
<polygon class="st0" points="377.3,343.9 343.8,377.3 309.4,342.9 342.8,309.4 "/>
<path d="M487,487.1L487,487.1c-19.9,19.9-52.2,19.9-72.1,0l-98.2-98.2l72.1-72.1L487,415C506.8,434.8,506.8,467.2,487,487.1z"/>
<path d="M337.6,57.6c-77.3-76.3-201.7-77.3-279,0s-78.4,200.6-1,277.9c76.3,77.3,201.7,77.3,279,1S413.8,134.9,337.6,57.6z"/>
<path class="st1" d="M306.2,306.3c-60.6,59.6-158.8,59.6-218.4-1c-60.6-59.6-59.6-157.8,1-217.3s158.8-59.6,218.4,1
	C366.8,148.5,366.8,246.7,306.2,306.3z"/>
<path d="M275.9,276c-43.9,42.8-114.9,42.8-157.8,0c-43.9-43.9-42.8-113.9,0-157.8c43.9-42.8,114.9-42.8,157.8,0
	C319.8,162.1,319.8,232.1,275.9,276z"/>
<path class="st2" d="M251.9,252c-30.3,30.3-79.4,30.3-109.7,0s-30.3-79.4,0-109.7s79.4-30.3,109.7,0
	C282.2,172.5,282.2,221.6,251.9,252z"/>
<g>
	<ellipse class="st3" cx="135.1" cy="159.9" rx="16.7" ry="16.7"/>
	<ellipse class="st3" cx="160" cy="176" rx="8.4" ry="8.4"/>
</g>
<polygon class="st2" points="388.8,316.7 315.6,387.8 345.9,418.1 418,346 "/>
</svg>
