<?xml version="1.0" encoding="utf-8"?>
<!-- Generator: Adobe Illustrator 24.3.0, SVG Export Plug-In . SVG Version: 6.00 Build 0)  -->
<svg version="1.1" id="Capa_1" xmlns="http://www.w3.org/2000/svg" xmlns:xlink="http://www.w3.org/1999/xlink" x="0px" y="0px"
	 viewBox="0 0 512 512" style="enable-background:new 0 0 512 512;" xml:space="preserve">
<style type="text/css">
	.st0{stroke:#FFFFFF;stroke-width:20;stroke-miterlimit:10;}
	.st1{fill:#333333;}
</style>
<g>
	<path d="M282.2,314.2c-32,14.6-69.8,0.6-84.5-31.5c-7.7-16.8-7.7-36.2,0-53L135,167c-29.9,20.9-53.9,49.2-69.5,82.2
		c-2,4.3-2,9.3,0,13.6c34.8,73.8,108.9,121,190.5,121.2c27.4-0.1,54.5-5.7,79.7-16.3L282.2,314.2z"/>
	<path d="M446.5,249.2C400,148.2,296,112.6,192.9,154.3l39.6,42.3c7.5-3,15.5-4.6,23.5-4.6c35.3,0,64,28.7,64,64
		c0,8.1-1.6,16-4.6,23.5l63.8,63.8c28.9-20.7,52-48.4,67.2-80.5C448.4,258.5,448.5,253.5,446.5,249.2z"/>
</g>
<path class="st0" d="M380.8,338.6c-8.8,0-16-7.2-16-16c0-4.7,2.1-9.2,5.8-12.3c11.4-9.5,21.5-20.3,30.1-32.2
	c9.5-13.1,9.4-30.9-0.1-44c-33.2-46-86.8-74-144.6-74.1c-14.7-0.1-29.3,1.8-43.5,5.5c-8.5,2.3-17.3-2.7-19.6-11.3
	c-2.3-8.5,2.7-17.3,11.3-19.6c16.9-4.5,34.4-6.7,51.9-6.6c81.6,0.2,150.2,36.4,184.9,110.2c6.9,20.2-1.4,35.8-3.4,40.1
	c-12.9,27.9-22.9,36.9-46.6,56.5C388.2,337.2,384.5,338.6,380.8,338.6z"/>
<path class="st0" d="M256,384c-80,3-156.1-45.4-183.3-107c-2-4.3-8.7-19.5-1.4-39.1c15.9-34,34.9-51.7,65.9-72.8
	c7.4-4.8,17.3-2.6,22.1,4.8c4.6,7.1,2.8,16.6-4.1,21.6c-19,12.9-35.2,29.3-47.8,48.2c-6.5,9.8-6.7,22.5-0.2,32.3
	c45.3,68.5,132.4,97.9,211,68.9c8.2-3.4,17.5,0.4,20.9,8.6s-0.4,17.5-8.6,20.9c-0.4,0.2-0.7,0.3-1.1,0.4
	C306,379.6,281.1,384.1,256,384z"/>
<path d="M256,320c-35.3,0-64-28.7-64-64c-0.1-6.5,1-13,3.2-19.2c3.4-8.2,12.7-12,20.9-8.7c7.7,3.2,11.6,11.7,9.1,19.6
	c-0.9,2.7-1.3,5.5-1.2,8.3c0,17.7,14.3,32,32,32c2.9,0.1,5.7-0.4,8.4-1.3c8.4-2.8,17.5,1.6,20.3,10c2.8,8.2-1.4,17.1-9.5,20.1
	C269,319,262.5,320.1,256,320z"/>
<path class="st1" d="M302.4,260.2c-7.4,0-13.8-5-15.5-12.2c-2.8-11.2-11.6-20-22.8-22.8c-8.5-2.3-13.6-11.1-11.3-19.6
	c2.2-8.3,10.6-13.3,18.9-11.5c22.8,5.8,40.5,23.5,46.3,46.3c2,8.5-3.2,17.1-11.7,19.2C305,259.9,303.7,260.1,302.4,260.2z"/>
<path class="st0" d="M384,432c-4.2,0-8.3-1.7-11.3-4.7l-288-288c-6.3-6.3-6.3-16.4,0-22.7s16.4-6.3,22.7,0l288,288
	c6.3,6.2,6.3,16.4,0,22.6C392.3,430.3,388.3,432,384,432z"/>
</svg>
