<svg height="512" viewBox="0 0 60 60" width="512" xmlns="http://www.w3.org/2000/svg"><g id="Page-1" fill="none" fill-rule="evenodd"><g id="029---Cloud-Accounts" fill="rgb(0,0,0)" fill-rule="nonzero"><path id="Shape" d="m41.59 7.49c-1.8996293-2.21500206-4.6719826-3.48977318-7.59-3.49-.5522847 0-1 .44771525-1 1s.4477153 1 1 1c2.3350005.00276653 4.5522502 1.02555059 6.07 2.8.1900027.22213775.4676882.35001923.76.35.2396226-.00275895.470287-.09147603.65-.25.2015762-.17238328.3264119-.4177863.3470412-.68221664.0206293-.26443035-.0646378-.52622436-.2370412-.72778336z"/><path id="Shape" d="m60 26c0-6.627417-5.372583-12-12-12-.0137806-6.75848529-4.8538456-12.54228148-11.5040745-13.74717535s-13.2118426 2.51313692-15.5959255 8.83717535c-3.1853678.34613608-6.0079851 2.2080208-7.58 5-.4379481-.0548953-.8786538-.0849434-1.32-.09-5.37183697.0012204-10.08843015 3.5723548-11.54666994 8.7424777s.69717866 10.679517 5.27666994 13.4875223c-5.01207318 3.408241-7.00378433 9.8278508-4.80103568 15.4745209 2.20274864 5.64667 8.0153707 9.0218334 14.01137208 8.1358584 5.9960014-.8859751 10.5841063-5.7979601 11.0596636-11.8403793 1.5737865 0 3.0557281-.7409708 4-2 .9442719 1.2590292 2.4262135 2 4 2 .4755573 6.0424192 5.0636622 10.9544042 11.0596636 11.8403793 5.9960014.885975 11.8086234-2.4891884 14.0113721-8.1358584 2.2027486-5.6466701.2110375-12.0662799-4.8010357-15.4745209 3.5681342-2.1727665 5.7411821-6.0523965 5.73-10.23zm-54.14 29.35c1.25-2.88 3.64-4.35 7.14-4.35s5.89 1.47 7.14 4.35c-4.1037043 3.5349499-10.17629572 3.5349499-14.28 0zm3.14-10.35c0-2.209139 1.790861-4 4-4s4 1.790861 4 4-1.790861 4-4 4c-1.060866 0-2.0782816-.4214274-2.8284271-1.1715729-.75014554-.7501455-1.1715729-1.7675611-1.1715729-2.8284271zm12.63 8.8c-1.0257151-1.9477958-2.7516791-3.4343403-4.83-4.16 1.9624772-1.6060676 2.7033296-4.2724995 1.8506481-6.6607424-.8526814-2.3882429-3.1147518-3.9825323-5.6506481-3.9825323s-4.79796665 1.5942894-5.65064811 3.9825323c-.85268147 2.3882429-.11182905 5.0546748 1.85064811 6.6607424-2.0783209.7256597-3.80428493 2.2122042-4.83 4.16-3.56164802-4.5063765-3.05644076-10.9944959 1.15983984-14.8952322 4.21628061-3.9007363 10.72403976-3.9007363 14.94032036 0s4.7214878 10.3888557 1.1598398 14.8952322zm4.37-7.8c-.2340732-3.0019533-1.5029635-5.829564-3.59-8h6.59v5c0 1.6568542-1.3431458 3-3 3zm5-3v-5h6.64c-2.0870365 2.170436-3.3559268 4.9980467-3.59 8-.8042771.0134065-1.580247-.2967357-2.153717-.8608044-.5734699-.5640688-.8963947-1.3348068-.896283-2.1391956zm8.86 12.35c1.25-2.88 3.64-4.35 7.14-4.35s5.89 1.47 7.14 4.35c-4.1037043 3.5349499-10.1762957 3.5349499-14.28 0zm3.14-10.35c0-2.209139 1.790861-4 4-4s4 1.790861 4 4-1.790861 4-4 4-4-1.790861-4-4zm15 2c.0000216 2.4691729-.8352523 4.8657394-2.37 6.8-1.0257151-1.9477958-2.7516791-3.4343403-4.83-4.16 1.9624772-1.6060676 2.7033296-4.2724995 1.8506481-6.6607424-.8526814-2.3882429-3.1147518-3.9825323-5.6506481-3.9825323s-4.7979667 1.5942894-5.6506481 3.9825323c-.8526815 2.3882429-.1118291 5.0546748 1.8506481 6.6607424-2.0783209.7256597-3.8042849 2.2122042-4.83 4.16-2.9904985-3.7837516-3.1675083-9.0742444-.4366088-13.0494231 2.7308994-3.9751787 7.732745-5.7078608 12.3374516-4.2737989 4.6047067 1.434062 7.7382591 5.7003832 7.7291572 10.523222zm-5.83-11.92c-3.9266888-1.715459-8.4486752-1.370784-12.07.92h-9.1v-7.1c2.5149632-.5133647 4.2326695-2.8476987 3.9746808-5.4015243-.2579888-2.5538256-2.4078572-4.4974552-4.9746808-4.4974552s-4.716692 1.9436296-4.9746808 4.4974552c-.2579887 2.5538256 1.4597176 4.8881596 3.9746808 5.4015243v7.1h-9.1c-3.6213248-2.290784-8.1433112-2.635459-12.07-.92-3.44554129-1.5508074-5.72277887-4.9112275-5.88629424-8.6861475s1.81461629-7.3196668 5.11315337-9.1626024c3.29853707-1.8429355 7.35416217-1.6693272 10.48314087.4487499.3001031.2000687.6841452.2248368 1.0074614.0649742.3233161-.1598625.5367869-.4800687.56-.84.023213-.3599312-.1473583-.7049055-.4474614-.9049742-1.0022971-.6732402-2.1016771-1.1892069-3.26-1.53 1.4344209-2.0914501 3.7755523-3.3788869 6.31-3.47h.29c1.7321407-.0073138 3.4186758.5548645 4.8 1.6.4418278.3313708 1.0686292.2418278 1.4-.2s.2418278-1.0686292-.2-1.4c-1.4368206-1.08209346-3.1410594-1.75272698-4.93-1.94 2.3315558-5.14486251 7.9354541-7.96718928 13.457282-6.77757612s9.466469 6.06906094 9.472718 11.71757612v.17c-1.6662638.2699658-3.2552963.893985-4.66 1.83-.4583963.3092795-.5792795.9316037-.27 1.39s.9316037.5792795 1.39.27c1.6394914-1.0940872 3.5690082-1.6722457 5.54-1.66 4.692719.0092258 8.7477796 3.2803301 9.7497411 7.8648443 1.0019614 4.5845142-1.3187349 9.2490623-5.5797411 11.2151557zm-22.17-8.08c-1.6568542 0-3-1.3431458-3-3s1.3431458-3 3-3 3 1.3431458 3 3-1.3431458 3-3 3z"/></g></g></svg>