<?xml version="1.0" encoding="utf-8"?>
<!-- Generator: Adobe Illustrator 22.0.1, SVG Export Plug-In . SVG Version: 6.00 Build 0)  -->
<svg version="1.1" id="Camada_1" xmlns="http://www.w3.org/2000/svg" xmlns:xlink="http://www.w3.org/1999/xlink" x="0px" y="0px"
	 viewBox="0 0 612 792" style="enable-background:new 0 0 612 792;" xml:space="preserve">
<g>
	<path d="M130.3,465.8c0-76.4,0.1-152.8,0-229.2c0-35-23.2-62.4-56.8-67.6c-5.7-0.9-11.5-0.8-17.2-2.2c-30.1-7.6-50-32.6-51.2-63.7
		C4.2,81,9.2,61.1,26,45.4c12.5-11.7,27.3-18,44.5-18c101.1-0.1,202.2-0.3,303.3,0.2c25.8,0.1,50.7,7.4,74.9,16.1
		c44.7,16.1,83.2,41,112,79.6c26.4,35.4,39.1,75.7,42.9,119.2c2.8,32.3,1.1,64.4-7.6,95.8c-13.2,47.6-39.9,86-79.7,115.3
		c-30.9,22.7-38.3,57.6-19.3,90.9c22.9,40.4,45.7,80.9,68.4,121.4c25.4,45.3-5.2,98.2-57.1,100.2c-103,4.1-206,1.3-309,2
		c-40.6,0.3-68.9-28.8-68.9-69.6C130.3,621,130.3,543.4,130.3,465.8z"/>
</g>
</svg>
