<?xml version="1.0" encoding="utf-8"?>
<!-- Generator: Adobe Illustrator 22.0.1, SVG Export Plug-In . SVG Version: 6.00 Build 0)  -->
<svg version="1.1" id="Camada_1" xmlns="http://www.w3.org/2000/svg" xmlns:xlink="http://www.w3.org/1999/xlink" x="0px" y="0px"
	 viewBox="0 0 500 500" style="enable-background:new 0 0 500 500;" xml:space="preserve">
<path d="M415.4,201.7c0,35.6-0.6,71.3,0.2,106.9c0.5,21.8-6.7,41.1-17.5,58.7c-21.9,35.5-74.4,39.8-106.2,12.2
	c-29.7-25.6-38.7-74.7-11.5-109.7c11.9-15.3,28.2-22.5,46.1-27.2c25.2-6.7,26.6-8.3,26.9-33.2c0.1-11.6,0.4-23.2-0.2-34.8
	c-0.9-17.4-7-22.7-23.8-18.6c-19.3,4.7-38.1,11.2-57.1,17.1c-10.3,3.2-20.5,6.6-30.7,10.1c-21.7,7.6-24.6,10.9-24.8,34
	c-0.4,48-0.6,96.1-0.2,144.1c0.2,19-4.2,36.6-14.9,51.7c-24.7,34.8-57.4,43.5-93.2,28.1c-28.3-12.2-45.9-47.5-43.3-80.7
	c2.5-31.9,24.7-58,57.4-67.3c30.4-8.7,31-9.4,31.2-40.1c0.1-30.7-0.2-61.3,0.2-92c0.4-26.4,11-41.8,36.7-49.5
	C227.8,100.3,264.6,88,302.1,78c20.9-5.6,41.9-13.2,62.7-20.5c7-2.5,14.3-4.6,21.6-5.4c17.7-2,24,2.8,27.3,20.6
	c1.3,7.3,1.5,14.8,1.6,22.2C415.4,130.5,415.3,166.1,415.4,201.7C415.4,201.7,415.4,201.7,415.4,201.7z M139,380.4
	c8.8-0.6,14.1-4.9,14.2-13.8c0.1-8.5-4.1-14.7-13-14.3c-8.2,0.3-13.8,6-14.5,14.1C125,375.1,130.5,379.6,139,380.4z M352.3,315.4
	c-0.8-6.8-4.3-13.2-13.3-12.8c-8.1,0.4-13.8,6-14.4,14c-0.6,8.6,4.8,13.6,13.4,13.7C346.7,330.4,351.5,325.5,352.3,315.4z"/>
</svg>
