<?xml version="1.0" encoding="utf-8"?>
<!-- Generator: Adobe Illustrator 22.0.1, SVG Export Plug-In . SVG Version: 6.00 Build 0)  -->
<svg version="1.1" id="Camada_1" xmlns="http://www.w3.org/2000/svg" xmlns:xlink="http://www.w3.org/1999/xlink" x="0px" y="0px"
	 viewBox="0 0 1920 550" style="enable-background:new 0 0 1920 550;" xml:space="preserve">
<style type="text/css">
	.st0{fill:#FFFFFF;}
	.st1{opacity:0.5;}
	.st2{opacity:0.3;}
</style>
<g id="Camada_2_1_">
</g>
<g id="Camada_1_1_">
	<g>
		<path class="st0" d="M1920,373c0,59,0,118,0,177c-640,0-1280,0-1920,0c0-68.5,0-137,0-205.5c0.8-2.3,1.6-4.7,2.4-7
			c6.6-17.2,11.8-35.1,20.1-51.4c18-35.4,44.6-63.4,78.3-84.8c37-23.5,77.5-35.5,121.1-35.3c17.1,0.1,34.2,3.3,51.3,5.3
			c38.9,4.6,77.8,9.2,116.6,14c38.6,4.7,77.2,9.8,115.8,14.5c38.9,4.8,77.7,9.3,116.6,14c42.6,5.2,85.1,10.7,127.7,16
			c38.9,4.8,77.7,9.2,116.6,14c42.6,5.2,85.1,10.7,127.7,16c46.8,5.7,93.6,11.2,140.4,16.9c50.7,6.2,101.4,12.8,152.1,19
			c59.1,7.3,118.3,14.2,177.5,21.4c50.7,6.2,101.4,12.8,152.2,19c51,6.3,102,12.3,153,18.4C1819.5,360.7,1869.8,366.9,1920,373z"/>
	</g>
	<g class="st1">
		<path class="st0" d="M1927.3,376.9c-1.1,59-2.1,117.9-3.2,176.9C1281.5,542.2,638.9,530.6-3.6,519c1.2-68.5,2.5-137,3.7-205.4
			c0.9-2.3,1.6-4.7,2.6-7c6.9-17.1,12.5-34.8,21.1-51c18.7-35.1,45.9-62.6,80.1-83.4c37.6-22.9,78.4-34.1,122.2-33.1
			c17.2,0.4,34.3,3.9,51.4,6.2c39,5.3,77.9,10.6,116.8,16.1c38.7,5.4,77.3,11.2,116,16.6c38.9,5.5,77.9,10.7,116.8,16.1
			c42.6,6,85.2,12.3,127.9,18.3c38.9,5.5,77.9,10.7,116.8,16.1c42.6,6,85.2,12.3,127.9,18.3c46.9,6.6,93.8,12.9,140.6,19.5
			c50.8,7.2,101.6,14.7,152.4,21.8c59.3,8.3,118.6,16.3,177.8,24.6c50.8,7.1,101.6,14.6,152.4,21.8c51.1,7.2,102.2,14.1,153.3,21.2
			C1826.6,362.8,1877,369.9,1927.3,376.9z"/>
	</g>
	<g class="st2">
		<path class="st0" d="M1926.9,378.2c-1.7,59-3.4,117.9-5.1,176.9C1279.4,536.5,636.9,518-5.5,499.4c2-68.5,4-136.9,5.9-205.4
			c0.9-2.3,1.7-4.7,2.7-6.9c7.1-17,12.9-34.7,21.7-50.8c19.1-34.9,46.6-62.1,81-82.5c37.9-22.4,78.8-33.2,122.6-31.8
			c17.2,0.6,34.3,4.3,51.3,6.8c38.9,5.7,77.8,11.4,116.6,17.3c38.6,5.9,77.2,12,115.8,17.8c38.9,5.9,77.8,11.5,116.6,17.4
			c42.6,6.5,85.1,13.2,127.7,19.7c38.9,5.9,77.8,11.5,116.6,17.4c42.6,6.5,85.1,13.2,127.7,19.7c46.8,7.1,93.6,13.9,140.4,21
			c50.7,7.7,101.4,15.8,152.2,23.4c59.2,9,118.4,17.6,177.5,26.6c50.7,7.7,101.4,15.7,152.2,23.4c51,7.7,102,15.2,153,22.9
			C1826.4,362.9,1876.6,370.6,1926.9,378.2z"/>
	</g>
</g>
</svg>
