<?xml version="1.0" encoding="utf-8"?>
<!-- Generator: Adobe Illustrator 22.0.1, SVG Export Plug-In . SVG Version: 6.00 Build 0)  -->
<svg version="1.1" id="Layer_1" xmlns="http://www.w3.org/2000/svg" xmlns:xlink="http://www.w3.org/1999/xlink" x="0px" y="0px"
	 viewBox="0 0 512 512" style="enable-background:new 0 0 512 512;" xml:space="preserve">
<style type="text/css">
	.st0{fill:#FDC794;}
	.st1{fill:#F9A671;}
</style>
<path class="st0" d="M464.3,225.6c0-19.1-15.6-34.7-34.7-34.7s-34.7,15.6-34.7,34.7v-43.4c0-19.1-15.6-34.7-34.7-34.7
	s-34.7,15.6-34.7,34.7V43.4c0-19.1-15.6-34.7-34.7-34.7l0,0c-19.1,0-34.7,15.6-34.7,34.7v138.8V78.1c0-19.1-15.6-34.7-34.7-34.7l0,0
	c-19.1,0-34.7,15.6-34.7,34.7V269l12.4-35.5c0-46.9-99.2,37.6-55.9,105c0,0,25.2,41.7,52.1,69.4v26c0,43.4,34.7,78.1,78.1,78.1h86.8
	c33.8,0,68.6-28.6,76.4-61.6c1.7-7.8,5.2-19.1,10.4-25.2c7.8-8.7,17.4-30.4,17.4-60.7L464.3,225.6L464.3,225.6z"/>
<g>
	<path class="st1" d="M195.3,295.1c-3.5,0-6.1-1.7-7.8-5.2l-8.7-17.4c-1.7-4.3,0-9.5,3.5-11.3c4.3-1.7,9.5,0,11.3,3.5l8.7,17.4
		c1.7,4.3,0,9.5-3.5,11.3C197.9,295.1,197,295.1,195.3,295.1"/>
	<path class="st1" d="M256,295.1c-5.2,0-8.7-3.5-8.7-8.7V78.1c0-5.2,3.5-8.7,8.7-8.7c5.2,0,8.7,3.5,8.7,8.7v208.3
		C264.7,291.6,261.2,295.1,256,295.1"/>
	<path class="st1" d="M325.4,286.4c-5.2,0-8.7-3.5-8.7-8.7V176.2c0-5.2,3.5-8.7,8.7-8.7s8.7,3.5,8.7,8.7v101.5
		C334.1,282.9,330.6,286.4,325.4,286.4"/>
	<path class="st1" d="M394.8,295.1c-5.2,0-8.7-3.5-8.7-8.7v-66.8c0-5.2,3.5-8.7,8.7-8.7s8.7,3.5,8.7,8.7v66.8
		C403.5,291.6,400.1,295.1,394.8,295.1"/>
	<path class="st1" d="M412.2,442.6c-3.5,0-7.8-2.6-8.7-6.1c-0.9-4.3,1.7-9.5,6.1-10.4c20.8-5.2,24.3-6.1,30.4-13.9
		c2.6-3.5,8.7-4.3,12.1-1.7c3.5,2.6,4.3,8.7,1.7,12.1c-9.5,13-18.2,14.8-39.1,20.8C413.9,442.6,413.1,442.6,412.2,442.6"/>
	<path class="st1" d="M238.6,442.6c-1.7,0-3.5-0.9-5.2-1.7c-5.2-4.3-9.5-7.8-14.8-10.4c-6.1-4.3-12.1-8.7-20.8-15.6
		c-3.5-3.5-3.5-8.7-0.9-12.1c3.5-3.5,8.7-3.5,12.1-0.9c6.9,6.1,12.1,10.4,18.2,13.9c5.2,3.5,9.5,6.9,15.6,11.3
		c3.5,3.5,4.3,8.7,0.9,12.1C243.9,441.7,241.2,442.6,238.6,442.6"/>
</g>
</svg>
