<?xml version="1.0" encoding="utf-8"?>
<!-- Generator: Adobe Illustrator 22.0.1, SVG Export Plug-In . SVG Version: 6.00 Build 0)  -->
<svg version="1.1" id="Camada_1" xmlns="http://www.w3.org/2000/svg" xmlns:xlink="http://www.w3.org/1999/xlink" x="0px" y="0px"
	 viewBox="0 0 500 500" style="enable-background:new 0 0 500 500;" xml:space="preserve">
<path d="M341.4,252.1c-0.2,51.1-39.5,92.4-88.1,92.5c-44.3,0.1-88.9-46.3-88-91.6c1.1-50.2,42.3-90.3,92.1-89.4
	C300.2,164.3,341.5,207.8,341.4,252.1z M278.7,252c0-11.7-12.8-25.1-24-25.1c-12,0-24.1,12-24.5,24.2c-0.4,13.7,9.6,24,23.3,24
	C266.9,275.2,278.7,264.3,278.7,252z"/>
<path d="M464,251.9c-0.4,56.5-18.7,106-57.8,147.3c-6,6.3-12.1,16.1-23.2,7.6c-10.1-7.8-11.3-19.9-3.1-31.6
	c3.4-4.8,7.9-8.8,11.6-13.4c45.4-55.8,51.1-138,14.1-197.4c-5-8-11.4-14.7-17.5-21.7c-3.3-3.8-6.4-7.9-8.7-12.3
	c-7.6-14.6-6.8-23,2.2-29.2c11.9-8.2,18.9,1,25.8,8.1C445.6,149.2,464.3,196.7,464,251.9z"/>
<path d="M42.7,252.6c1.1-51.5,18.2-96.7,50.1-136.3c4.2-5.2,9.4-9.9,14.9-13.6c6.1-4.1,12.9-4.1,18.6,1.5c5.3,5.2,8,11.8,4.4,18.5
	c-4.4,8.1-10.1,15.6-15.8,23c-49.1,63.6-49.7,147.3-1.2,212.5c4,5.4,8.5,10.6,12.4,16.2c7.5,10.9,6.7,19.7-2,26.8
	c-8.5,7-17,6.1-26.6-4.1c-14.1-15-23.4-33.2-32.3-51.5C50.9,316,43.2,285,42.7,252.6z"/>
<path d="M402.7,255.3c0,36.3-13.2,69.4-37.4,98.2c-6.5,7.8-13.9,16-25.6,7.2c-10.2-7.8-11.7-19.3-1.3-30.9
	c21.6-24,31.4-51.6,29.9-83.6c-1-20.8-6.2-39.9-19.8-56.3c-5.9-7.1-11.4-14.9-15.2-23.2c-3.7-7.9-4-16.9,4.5-22.8
	c8.8-6.2,15.7-1.7,22.3,4.8C389.8,177.4,402.9,212.7,402.7,255.3z"/>
<path d="M158.7,143.3c12.8,0.6,20,12.7,14.3,24c-3.8,7.5-9.4,14-14.1,21.1c-27.3,41.1-27.1,87.7,0.4,128.8c4.2,6.3,9.5,12.2,12.6,19
	c3.4,7.4,2.2,15.4-4.4,20.9c-6.9,5.6-14.5,4.6-20.8-1.3c-5.6-5.2-11.2-10.6-15.5-16.8c-37.7-54.1-35.1-129.4,6-180.5
	C143.1,151.2,148.9,143.5,158.7,143.3z"/>
</svg>
