<?xml version="1.0" encoding="utf-8"?>
<!-- Generator: Adobe Illustrator 22.0.1, SVG Export Plug-In . SVG Version: 6.00 Build 0)  -->
<svg version="1.1" id="Camada_1" xmlns="http://www.w3.org/2000/svg" xmlns:xlink="http://www.w3.org/1999/xlink" x="0px" y="0px"
	 viewBox="0 0 500 500" style="enable-background:new 0 0 500 500;" xml:space="preserve">
<path d="M479.5,312.5c-0.5,23-2.5,45.2-16.8,64.7c-19.3,26.3-43.3,36.8-76.6,31.4c-27.8-4.5-50.9-16.5-73.5-31.7
	c-14.4-9.6-28-19.7-45.9-23.8c-17.6-4-32.7-0.5-47.3,7.4c-15.3,8.3-29.1,19.1-44.3,27.5c-26.8,14.7-53.8,24.7-86.4,21
	c-45.3-5.1-68.1-45.3-66.2-85.5c2.8-62,20.5-120,51.7-173.8c9.8-16.9,23.2-30.6,38.1-42.8c19.6-16,42.5-19.7,66.6-13.5
	c12.6,3.2,24.9,7.9,37.2,12.3c25.8,9.3,51.6,9.6,76.5-1.9c62.8-29.1,100.9-10.6,134.5,43.6C458.2,197.9,475.9,253.1,479.5,312.5z
	 M87.6,289.8c-1.3,39.7,8.2,47.6,40.2,41.2c17.3-3.5,33.2-10.4,48.4-19.1c8.3-4.8,16.4-9.9,24.6-14.9c32.7-19.7,66-20,99.4-2.1
	c15.4,8.2,31.4,15.9,45,26.5c13.3,10.3,28.5,11.1,43.3,13.9c10.5,2,18.3-4.1,23.2-13.5c5.1-9.7,6.1-20.2,4.2-30.6
	c-4.9-28.3-10.9-56.3-23.4-82.6c-22.6-47.5-52.8-61.8-101.8-43.7c-27.1,10-52.2,11.6-78.3-0.7c-4.7-2.2-9.8-3.7-14.9-4.9
	c-32-7.5-56.4,1.6-74.7,29C101.2,221.2,91.4,258,87.6,289.8z"/>
</svg>
