<?xml version="1.0" encoding="utf-8"?>
<!-- Generator: Adobe Illustrator 22.0.1, SVG Export Plug-In . SVG Version: 6.00 Build 0)  -->
<svg version="1.1" xmlns="http://www.w3.org/2000/svg" xmlns:xlink="http://www.w3.org/1999/xlink" x="0px" y="0px"
	 viewBox="0 0 1920 550" style="enable-background:new 0 0 1920 550;" xml:space="preserve">
<style type="text/css">
	.st0{fill:#FFFFFF;}
	.st1{opacity:0.5;}
	.st2{opacity:0.3;}
</style>
<g id="Camada_2">
</g>
<g id="Camada_1">
	<g>
		<path class="st0" d="M2,182C2,123,2,64,2,5c640,0,1280,0,1920,0c0,68.5,0,137,0,205.5c-0.8,2.3-1.6,4.7-2.4,7
			c-6.6,17.2-11.8,35.1-20.1,51.4c-18,35.4-44.6,63.4-78.3,84.8c-37,23.5-77.5,35.5-121.1,35.3c-17.1-0.1-34.2-3.3-51.3-5.3
			c-38.9-4.6-77.8-9.2-116.6-14c-38.6-4.7-77.2-9.8-115.8-14.5c-38.9-4.8-77.7-9.3-116.6-14c-42.6-5.2-85.1-10.7-127.7-16
			c-38.9-4.8-77.7-9.2-116.6-14c-42.6-5.2-85.1-10.7-127.7-16c-46.8-5.7-93.6-11.2-140.4-16.9c-50.7-6.2-101.4-12.8-152.1-19
			c-59.1-7.3-118.3-14.2-177.5-21.4c-50.7-6.2-101.4-12.8-152.2-19c-51-6.3-102-12.3-153-18.4C102.5,194.3,52.2,188.1,2,182z"/>
	</g>
	<g class="st1">
		<path class="st0" d="M-5.3,178.1c1.1-59,2.1-117.9,3.2-176.9c642.6,11.6,1285.2,23.2,1927.7,34.8c-1.2,68.5-2.5,137-3.7,205.4
			c-0.9,2.3-1.6,4.7-2.6,7c-6.9,17.1-12.5,34.8-21.1,51c-18.7,35.1-45.9,62.6-80.1,83.4c-37.6,22.9-78.4,34.1-122.2,33.1
			c-17.2-0.4-34.3-3.9-51.4-6.2c-39-5.3-77.9-10.6-116.8-16.1c-38.7-5.4-77.3-11.2-116-16.6c-38.9-5.5-77.9-10.7-116.8-16.1
			c-42.6-6-85.2-12.3-127.9-18.3c-38.9-5.5-77.9-10.7-116.8-16.1c-42.6-6-85.2-12.3-127.9-18.3c-46.9-6.6-93.8-12.9-140.6-19.5
			c-50.8-7.2-101.6-14.7-152.4-21.8c-59.3-8.3-118.6-16.3-177.8-24.6c-50.8-7.1-101.6-14.6-152.4-21.8
			c-51.1-7.2-102.2-14.1-153.3-21.2C95.4,192.2,45,185.1-5.3,178.1z"/>
	</g>
	<g class="st2">
		<path class="st0" d="M-4.9,176.8C-3.2,117.9-1.5,58.9,0.2,0C642.6,18.5,1285.1,37,1927.5,55.6c-2,68.5-4,136.9-5.9,205.4
			c-0.9,2.3-1.7,4.7-2.7,6.9c-7.1,17-12.9,34.7-21.7,50.8c-19.1,34.9-46.6,62.1-81,82.5c-37.9,22.4-78.8,33.2-122.6,31.8
			c-17.2-0.6-34.3-4.3-51.3-6.8c-38.9-5.7-77.8-11.4-116.6-17.3c-38.6-5.9-77.2-12-115.8-17.8c-38.9-5.9-77.8-11.5-116.6-17.4
			c-42.6-6.5-85.1-13.2-127.7-19.7c-38.9-5.9-77.8-11.5-116.6-17.4c-42.6-6.5-85.1-13.2-127.7-19.7c-46.8-7.1-93.6-13.9-140.4-21
			c-50.7-7.7-101.4-15.8-152.2-23.4c-59.2-9-118.4-17.6-177.5-26.6c-50.7-7.7-101.4-15.7-152.2-23.4c-51-7.7-102-15.2-153-22.9
			C95.6,192.1,45.4,184.4-4.9,176.8z"/>
	</g>
</g>
</svg>
