<?xml version="1.0" encoding="utf-8"?>
<!-- Generator: Adobe Illustrator 22.0.1, SVG Export Plug-In . SVG Version: 6.00 Build 0)  -->
<svg version="1.1" id="Camada_1" xmlns="http://www.w3.org/2000/svg" xmlns:xlink="http://www.w3.org/1999/xlink" x="0px" y="0px"
	 viewBox="0 0 500 500" style="enable-background:new 0 0 500 500;" xml:space="preserve">
<path d="M251.5,137.4c-48.5,0-96.9,0.3-145.4-0.1c-23-0.2-35.7-11.7-36.4-30.7C69,87.7,80.4,73.6,99.2,71.1c7.1-1,14.3-0.5,21.5-0.5
	c87-0.1,174.1-0.2,261.1-0.2c6.3,0,12.6-0.4,18.8,0.5c18.6,2.6,29.7,14.8,30,32.2c0.4,18.3-11.7,32.5-31.1,33.7
	c-20.6,1.2-41.3,0.5-61.9,0.6C309,137.4,280.3,137.3,251.5,137.4C251.5,137.3,251.5,137.3,251.5,137.4z"/>
<path d="M249.3,234.5c-47.6,0-95.1,0.3-142.7-0.1c-24.1-0.2-37.2-12.7-36.9-33C70,185.1,80.3,172,96,168.4c2.6-0.6,5.3-0.8,8-0.8
	c96.9-0.1,193.9-0.4,290.8,0c23.3,0.1,36.9,14.6,36.1,34.7c-0.8,18.1-15,31.7-36.3,31.9c-48.5,0.6-96.9,0.2-145.4,0.2
	C249.3,234.4,249.3,234.5,249.3,234.5z"/>
<path d="M205.9,331.6c-34.1,0-68.2,0.6-102.3-0.2c-22.8-0.5-35.7-15.2-33.9-35.9c1.3-14.8,11.7-26.8,26.5-29.9
	c5.2-1.1,10.7-0.9,16.1-0.9c64.6-0.1,129.2-0.1,193.8-0.2c3.6,0,7.2-0.2,10.8,0.2c20.4,2.2,32.5,14.1,32.9,32.4
	c0.5,19.2-12.5,33.3-33.6,34.1c-27.8,1-55.6,0.5-83.4,0.6c-9,0-17.9,0-26.9,0C205.9,331.7,205.9,331.6,205.9,331.6z"/>
<path d="M154.2,428.8c-17,0-34,0.6-51-0.2c-20.5-0.9-32.9-12.8-33.6-30.8c-0.7-19.6,11.6-34.9,32-35.6c35.8-1.2,71.6-1.2,107.4-0.2
	c21.1,0.6,35.3,16,34.6,33.7c-0.7,18.6-14.2,31.6-35.7,32.6c-17.9,0.9-35.8,0.2-53.7,0.2C154.2,428.6,154.2,428.7,154.2,428.8z"/>
</svg>
