<?xml version="1.0" encoding="UTF-8" standalone="no"?><svg xmlns:svg="http://www.w3.org/2000/svg" xmlns="http://www.w3.org/2000/svg" xmlns:xlink="http://www.w3.org/1999/xlink" version="1.0" width="132px" height="132px" viewBox="0 0 128 128" xml:space="preserve"><rect x="0" y="0" width="100%" height="100%" fill="#FFFFFF" /><g><path d="M110.5,103.6c-2.9,2.9-5.7,5.7-8.6,8.6c-1.3,1.3-1.5,3.2-0.4,4.6c0.2,0.2,0.4,0.5,0.6,0.7c0.8,1.4,0.6,3.1-0.5,4.3
		c-0.8,0.9-1.7,1.4-2.9,1.4c-0.9,0-1.7-0.3-2.3-1c-3.8-3.8-7.6-7.5-11.3-11.3c-1-1-1.6-2.2-2.2-3.4c-1.1-2.3-1.6-4.6-1.2-7.2
		C82,98,83,96,84.5,94.3c1.1-1.3,2.4-2.4,3.9-3.3c2.3-1.3,4.7-1.7,7.3-1.3c2,0.3,3.6-0.7,4.1-2.7c0.7-2.4,1.3-4.7,2-7.1
		c0.7-2.6,3.9-3.5,5.9-1.6c4,3.7,7.7,7.6,11.6,11.5c1.5,1.5,1.5,3.6,0,5.2C116.3,97.8,113.4,100.7,110.5,103.6z" fill="#000" fill-opacity="1"/><animateTransform attributeName="transform" type="rotate" from="0 64 64" to="360 64 64" dur="1000ms" repeatCount="indefinite"></animateTransform></g></svg>